<svg width="126" height="34" viewBox="0 0 126 34" fill="none" xmlns="http://www.w3.org/2000/svg">
<path fill-rule="evenodd" clip-rule="evenodd" d="M25.432 8.55802C26.5783 6.57262 29.444 6.57262 30.5902 8.55803L32.194 11.3358L29.2728 16.9347H25.6928C25.3514 16.9347 25.0357 17.1158 24.8634 17.4105L19.3381 26.863C17.4351 26.4518 16.3689 24.2557 17.4034 22.4639L25.432 8.55802ZM30.7069 18.3397L33.3324 13.3075L38.6188 22.4639C39.7651 24.4493 38.3322 26.9311 36.0397 26.9311H21.5238L26.244 18.856H29.8552C30.2131 18.856 30.5413 18.6571 30.7069 18.3397ZM68.9988 12.7826H68.9992L68.9991 12.7827C68.9991 12.7827 68.9156 12.8967 68.9156 13.1284C68.9156 13.3701 68.9961 13.5716 69.1573 13.7327C69.3185 13.8939 69.5199 13.9744 69.7617 13.9744H70.4566V18.1444C70.4566 18.6379 70.5322 19.0257 70.6833 19.3077C70.8344 19.5898 71.0207 19.8013 71.2423 19.9423C71.474 20.0732 71.7157 20.1588 71.9675 20.1991C72.2294 20.2294 72.4661 20.2445 72.6776 20.2445C73.0302 20.2445 73.3575 20.1538 73.6597 19.9725C73.9719 19.7912 74.1281 19.5595 74.1281 19.2775C74.1281 19.0459 74.0676 18.8646 73.9468 18.7336C73.836 18.6027 73.7101 18.5372 73.569 18.5372C73.4381 18.5372 73.3223 18.5624 73.2215 18.6127C73.1208 18.653 73.01 18.6732 72.8891 18.6732C72.7784 18.6732 72.6726 18.653 72.5719 18.6127C72.4812 18.5725 72.4057 18.507 72.3452 18.4163C72.2949 18.3257 72.2697 18.2099 72.2697 18.0688V13.9744H73.3424C73.5841 13.9744 73.7856 13.8989 73.9468 13.7478C74.1079 13.5867 74.1885 13.3902 74.1885 13.1586C74.1885 12.9168 74.1079 12.7154 73.9468 12.5542C73.7856 12.3931 73.5841 12.3125 73.3424 12.3125H72.2697V11.3456C72.2697 11.0837 72.1841 10.8671 72.0128 10.6959C71.8517 10.5146 71.6402 10.424 71.3783 10.424C71.1164 10.424 70.8948 10.5146 70.7135 10.6959L70.7009 10.7087L70.7023 10.6859L68.9988 12.7826ZM49.7858 12.0103C50.0477 12.0103 50.2643 12.096 50.4355 12.2672C50.6068 12.4384 50.6924 12.66 50.6924 12.932V19.3228C50.6924 19.5847 50.6068 19.8063 50.4355 19.9876C50.2643 20.1588 50.0477 20.2445 49.7858 20.2445C49.524 20.2445 49.3074 20.1588 49.1362 19.9876C48.9696 19.8112 48.884 19.5966 48.8795 19.3439C48.7559 19.4779 48.6047 19.6119 48.4261 19.7459C48.1843 19.9272 47.8973 20.0833 47.5649 20.2142C47.2426 20.3351 46.89 20.3955 46.5073 20.3955C45.8123 20.3955 45.1827 20.2193 44.6187 19.8668C44.0546 19.5041 43.6064 19.0106 43.274 18.3861C42.9517 17.7516 42.7905 17.0264 42.7905 16.2105C42.7905 15.3846 42.9517 14.6594 43.274 14.0349C43.6064 13.4003 44.0496 12.9068 44.6036 12.5542C45.1576 12.1916 45.772 12.0103 46.4468 12.0103C46.8799 12.0103 47.2778 12.0758 47.6404 12.2068C48.003 12.3377 48.3153 12.5039 48.5772 12.7053C48.6889 12.7881 48.7897 12.8718 48.8793 12.9563V12.932C48.8793 12.6701 48.9649 12.4535 49.1362 12.2823C49.3074 12.101 49.524 12.0103 49.7858 12.0103ZM46.7339 18.7336C47.1771 18.7336 47.5649 18.6228 47.8973 18.4012C48.2297 18.1796 48.4865 17.8775 48.6678 17.4947C48.8592 17.112 48.9549 16.6839 48.9549 16.2105C48.9549 15.727 48.8592 15.2939 48.6678 14.9112C48.4865 14.5284 48.2297 14.2263 47.8973 14.0047C47.5649 13.7831 47.1771 13.6723 46.7339 13.6723C46.3008 13.6723 45.918 13.7831 45.5856 14.0047C45.2532 14.2263 44.9914 14.5284 44.8 14.9112C44.6187 15.2939 44.528 15.727 44.528 16.2105C44.528 16.6839 44.6187 17.112 44.8 17.4947C44.9914 17.8775 45.2532 18.1796 45.5856 18.4012C45.918 18.6228 46.3008 18.7336 46.7339 18.7336ZM56.238 12.0103C56.943 12.0103 57.5726 12.1916 58.1265 12.5542C58.6906 12.9068 59.1338 13.3953 59.4561 14.0198C59.7885 14.6443 59.9547 15.3695 59.9547 16.1954C59.9547 17.0213 59.7885 17.7516 59.4561 18.3861C59.1338 19.0106 58.6956 19.5041 58.1417 19.8668C57.5977 20.2193 56.9833 20.3955 56.2984 20.3955C55.8955 20.3955 55.5178 20.3301 55.1652 20.1991C54.8127 20.0682 54.5005 19.902 54.2285 19.7006C54.0928 19.5961 53.9719 19.4917 53.8659 19.3873V22.3445C53.8659 22.6064 53.7803 22.823 53.6091 22.9942C53.4378 23.1755 53.2213 23.2662 52.9594 23.2662C52.6975 23.2662 52.4809 23.1805 52.3097 23.0093C52.1385 22.8381 52.0529 22.6165 52.0529 22.3445V13.083C52.0529 12.8212 52.1385 12.6046 52.3097 12.4334C52.4809 12.2521 52.6975 12.1614 52.9594 12.1614C53.2213 12.1614 53.4378 12.2521 53.6091 12.4334C53.7803 12.6046 53.8659 12.8212 53.8659 13.083V13.1599C54.0017 12.9892 54.1779 12.8226 54.3947 12.66C54.6364 12.4686 54.9134 12.3125 55.2257 12.1916C55.548 12.0708 55.8854 12.0103 56.238 12.0103ZM56.0113 13.6723C55.5681 13.6723 55.1804 13.7831 54.848 14.0047C54.5156 14.2263 54.2537 14.5284 54.0623 14.9112C53.881 15.2838 53.7904 15.7119 53.7904 16.1954C53.7904 16.6688 53.881 17.1019 54.0623 17.4947C54.2537 17.8775 54.5156 18.1796 54.848 18.4012C55.1804 18.6228 55.5681 18.7336 56.0113 18.7336C56.4545 18.7336 56.8373 18.6228 57.1596 18.4012C57.492 18.1796 57.7488 17.8775 57.9301 17.4947C58.1215 17.1019 58.2172 16.6688 58.2172 16.1954C58.2172 15.7119 58.1215 15.2838 57.9301 14.9112C57.7488 14.5284 57.492 14.2263 57.1596 14.0047C56.8373 13.7831 56.4545 13.6723 56.0113 13.6723ZM66.9356 12.5542C66.3816 12.1916 65.7521 12.0103 65.047 12.0103C64.6945 12.0103 64.3571 12.0708 64.0348 12.1916C63.7225 12.3125 63.4455 12.4686 63.2038 12.66C62.987 12.8226 62.8107 12.9892 62.675 13.1599V13.083C62.675 12.8212 62.5894 12.6046 62.4181 12.4334C62.2469 12.2521 62.0303 12.1614 61.7684 12.1614C61.5066 12.1614 61.29 12.2521 61.1188 12.4334C60.9475 12.6046 60.8619 12.8212 60.8619 13.083V22.3445C60.8619 22.6165 60.9475 22.8381 61.1188 23.0093C61.29 23.1805 61.5066 23.2662 61.7684 23.2662C62.0303 23.2662 62.2469 23.1755 62.4181 22.9942C62.5894 22.823 62.675 22.6064 62.675 22.3445V19.3873C62.781 19.4917 62.9018 19.5961 63.0376 19.7006C63.3095 19.902 63.6218 20.0682 63.9743 20.1991C64.3269 20.3301 64.7046 20.3955 65.1075 20.3955C65.7924 20.3955 66.4068 20.2193 66.9507 19.8668C67.5047 19.5041 67.9429 19.0106 68.2652 18.3861C68.5976 17.7516 68.7638 17.0213 68.7638 16.1954C68.7638 15.3695 68.5976 14.6443 68.2652 14.0198C67.9429 13.3953 67.4997 12.9068 66.9356 12.5542ZM63.657 14.0047C63.9894 13.7831 64.3772 13.6723 64.8204 13.6723C65.2636 13.6723 65.6463 13.7831 65.9687 14.0047C66.3011 14.2263 66.5579 14.5284 66.7392 14.9112C66.9306 15.2838 67.0263 15.7119 67.0263 16.1954C67.0263 16.6688 66.9306 17.1019 66.7392 17.4947C66.5579 17.8775 66.3011 18.1796 65.9687 18.4012C65.6463 18.6228 65.2636 18.7336 64.8204 18.7336C64.3772 18.7336 63.9894 18.6228 63.657 18.4012C63.3246 18.1796 63.0628 17.8775 62.8714 17.4947C62.6901 17.1019 62.5994 16.6688 62.5994 16.1954C62.5994 15.7119 62.6901 15.2838 62.8714 14.9112C63.0628 14.5284 63.3246 14.2263 63.657 14.0047ZM85.765 12.4334C85.5938 12.2521 85.3924 12.1614 85.1607 12.1614C84.6974 12.1614 84.4053 12.3528 84.2844 12.7355L82.6652 17.0797L81.5044 13.9291C81.4339 13.7478 81.3382 13.6118 81.2173 13.5212C81.1065 13.4205 80.9403 13.3701 80.7188 13.3701C80.3259 13.3701 80.0489 13.5564 79.8878 13.9291L78.696 17.1638L77.0624 12.7355C77.002 12.5341 76.8963 12.3881 76.7452 12.2974C76.5941 12.2068 76.4228 12.1614 76.2315 12.1614C75.9494 12.1614 75.7278 12.2571 75.5667 12.4485C75.4055 12.6399 75.3249 12.8564 75.3249 13.0982C75.3249 13.219 75.3451 13.3349 75.3854 13.4456L77.697 19.6703C77.7675 19.8718 77.8934 20.0279 78.0747 20.1387C78.2661 20.2394 78.4575 20.2747 78.6489 20.2445C78.9913 20.2243 79.2482 20.0329 79.4194 19.6703L80.6364 15.9539L81.9274 19.6703C82.0987 20.0329 82.3555 20.2243 82.698 20.2445C82.8994 20.2747 83.0908 20.2394 83.2721 20.1387C83.4534 20.0279 83.5793 19.8718 83.6498 19.6703L85.9615 13.4456C85.9816 13.3953 85.9967 13.3449 86.0068 13.2946C86.0169 13.2341 86.0219 13.1687 86.0219 13.0982C86.0219 12.8262 85.9363 12.6046 85.765 12.4334ZM93.4476 12.0103C93.7095 12.0103 93.926 12.096 94.0973 12.2672C94.2685 12.4384 94.3541 12.66 94.3541 12.932V19.3228C94.3541 19.5847 94.2685 19.8063 94.0973 19.9876C93.926 20.1588 93.7095 20.2445 93.4476 20.2445C93.1857 20.2445 92.9691 20.1588 92.7979 19.9876C92.6313 19.8112 92.5457 19.5966 92.5412 19.3439C92.4176 19.4779 92.2665 19.6119 92.0878 19.7459C91.8461 19.9272 91.559 20.0833 91.2266 20.2142C90.9043 20.3351 90.5518 20.3955 90.169 20.3955C89.474 20.3955 88.8445 20.2193 88.2804 19.8668C87.7164 19.5041 87.2681 19.0106 86.9357 18.3861C86.6134 17.7516 86.4523 17.0264 86.4523 16.2105C86.4523 15.3846 86.6134 14.6594 86.9357 14.0349C87.2681 13.4003 87.7113 12.9068 88.2653 12.5542C88.8193 12.1916 89.4337 12.0103 90.1086 12.0103C90.5417 12.0103 90.9395 12.0758 91.3022 12.2068C91.6648 12.3377 91.977 12.5039 92.2389 12.7053C92.3507 12.7881 92.4514 12.8718 92.5411 12.9563V12.932C92.5411 12.6701 92.6267 12.4535 92.7979 12.2823C92.9691 12.101 93.1857 12.0103 93.4476 12.0103ZM90.3956 18.7336C90.8388 18.7336 91.2266 18.6228 91.559 18.4012C91.8914 18.1796 92.1482 17.8775 92.3295 17.4947C92.5209 17.112 92.6166 16.6839 92.6166 16.2105C92.6166 15.727 92.5209 15.2939 92.3295 14.9112C92.1482 14.5284 91.8914 14.2263 91.559 14.0047C91.2266 13.7831 90.8388 13.6723 90.3956 13.6723C89.9625 13.6723 89.5798 13.7831 89.2474 14.0047C88.915 14.2263 88.6531 14.5284 88.4617 14.9112C88.2804 15.2939 88.1898 15.727 88.1898 16.2105C88.1898 16.6839 88.2804 17.112 88.4617 17.4947C88.6531 17.8775 88.915 18.1796 89.2474 18.4012C89.5798 18.6228 89.9625 18.7336 90.3956 18.7336ZM95.9714 19.9876C96.1427 20.1588 96.3592 20.2445 96.6211 20.2445C96.883 20.2445 97.0996 20.1588 97.2708 19.9876C97.442 19.8063 97.5276 19.5847 97.5276 19.3228V15.7421C97.5276 15.3795 97.573 15.0673 97.6636 14.8054C97.7643 14.5335 97.8902 14.3068 98.0413 14.1255C98.2025 13.9442 98.3737 13.8133 98.555 13.7327C98.7464 13.6421 98.9327 13.5967 99.114 13.5967C99.3155 13.5967 99.4918 13.632 99.6429 13.7025C99.804 13.773 99.9803 13.8082 100.172 13.8082C100.373 13.8082 100.559 13.7377 100.731 13.5967C100.902 13.4456 100.988 13.2039 100.988 12.8715C100.988 12.6399 100.882 12.4384 100.67 12.2672C100.469 12.096 100.217 12.0103 99.9148 12.0103C99.663 12.0103 99.4112 12.0406 99.1594 12.101C98.9076 12.1614 98.6709 12.2571 98.4493 12.3881C98.2277 12.5089 98.0262 12.665 97.8449 12.8564C97.7241 12.9843 97.6184 13.1273 97.5276 13.2852V13.083C97.5276 12.8212 97.442 12.6046 97.2708 12.4334C97.0996 12.2521 96.883 12.1614 96.6211 12.1614C96.3592 12.1614 96.1427 12.2521 95.9714 12.4334C95.8002 12.6046 95.7146 12.8212 95.7146 13.083V19.3228C95.7146 19.5847 95.8002 19.8063 95.9714 19.9876ZM105.054 20.3955C104.198 20.3955 103.452 20.2193 102.818 19.8668C102.193 19.5041 101.71 19.0156 101.367 18.4012C101.035 17.7868 100.869 17.0918 100.869 16.3163C100.869 15.4097 101.05 14.6392 101.413 14.0047C101.785 13.36 102.269 12.8665 102.863 12.524C103.457 12.1816 104.087 12.0103 104.752 12.0103C105.265 12.0103 105.749 12.1161 106.202 12.3276C106.665 12.5391 107.073 12.8312 107.426 13.2039C107.778 13.5665 108.055 13.9896 108.257 14.473C108.468 14.9565 108.574 15.4702 108.574 16.0141C108.564 16.2558 108.468 16.4522 108.287 16.6033C108.106 16.7544 107.894 16.8299 107.652 16.8299H102.663C102.717 17.1094 102.809 17.3612 102.939 17.5854C103.17 17.958 103.462 18.2451 103.815 18.4466C104.177 18.6379 104.56 18.7336 104.963 18.7336C105.336 18.7336 105.633 18.7034 105.855 18.643C106.076 18.5825 106.252 18.512 106.383 18.4314C106.524 18.3408 106.65 18.2653 106.761 18.2048C106.942 18.1142 107.114 18.0688 107.275 18.0688C107.496 18.0688 107.678 18.1444 107.819 18.2955C107.97 18.4466 108.045 18.6228 108.045 18.8243C108.045 19.0962 107.904 19.343 107.622 19.5646C107.36 19.7862 106.993 19.9826 106.519 20.1538C106.046 20.315 105.557 20.3955 105.054 20.3955ZM102.772 14.9716C102.736 15.0781 102.705 15.1939 102.681 15.3191H106.64V15.2133C106.62 14.9212 106.514 14.6594 106.323 14.4277C106.142 14.196 105.91 14.0147 105.628 13.8838C105.356 13.7428 105.064 13.6723 104.752 13.6723C104.449 13.6723 104.167 13.7126 103.906 13.7931C103.644 13.8737 103.417 14.0097 103.226 14.2011C103.034 14.3924 102.883 14.6493 102.772 14.9716Z" fill="white"/>
</svg>
