<svg width="17" height="17" viewBox="0 0 17 17" fill="none" xmlns="http://www.w3.org/2000/svg">
<path d="M3.53509 0.875C1.92303 0.875 0.625 2.17303 0.625 3.78509V13.9024C0.625 15.5145 1.92303 16.8125 3.53509 16.8125H9.0186V10.5819H7.37106V8.33872H9.0186V6.42224C9.0186 4.91655 9.99204 3.53407 12.2345 3.53407C13.1424 3.53407 13.8138 3.62123 13.8138 3.62123L13.761 5.71602C13.761 5.71602 13.0763 5.70955 12.3291 5.70955C11.5204 5.70955 11.3908 6.08214 11.3908 6.70067V8.33874H13.8252L13.7192 10.5819H11.3908V16.8125H13.6524C15.2645 16.8125 16.5625 15.5145 16.5625 13.9024V3.7851C16.5625 2.17304 15.2645 0.875016 13.6524 0.875016H3.53508L3.53509 0.875Z" fill="#CECECE"/>
</svg>
