<svg width="16" height="16" viewBox="0 0 16 16" fill="none" xmlns="http://www.w3.org/2000/svg">
<path d="M8.09371 5.28092C6.68252 5.28092 5.53088 6.43256 5.53088 7.84376C5.53088 9.25495 6.68252 10.4066 8.09371 10.4066C9.5049 10.4066 10.6565 9.25495 10.6565 7.84376C10.6565 6.43256 9.5049 5.28092 8.09371 5.28092ZM15.7803 7.84376C15.7803 6.78248 15.7899 5.73081 15.7303 4.67146C15.6707 3.44099 15.39 2.34895 14.4902 1.44916C13.5885 0.547462 12.4984 0.268684 11.2679 0.209083C10.2067 0.149482 9.15499 0.159095 8.09563 0.159095C7.03435 0.159095 5.98269 0.149482 4.92333 0.209083C3.69286 0.268684 2.60082 0.549385 1.70104 1.44916C0.799339 2.35087 0.520561 3.44099 0.46096 4.67146C0.401359 5.73273 0.410972 6.7844 0.410972 7.84376C0.410972 8.90311 0.401359 9.9567 0.46096 11.0161C0.520561 12.2465 0.801262 13.3386 1.70104 14.2383C2.60274 15.1401 3.69286 15.4188 4.92333 15.4784C5.98461 15.538 7.03628 15.5284 8.09563 15.5284C9.15691 15.5284 10.2086 15.538 11.2679 15.4784C12.4984 15.4188 13.5904 15.1381 14.4902 14.2383C15.3919 13.3366 15.6707 12.2465 15.7303 11.0161C15.7918 9.9567 15.7803 8.90504 15.7803 7.84376ZM8.09371 11.787C5.91155 11.787 4.15044 10.0259 4.15044 7.84376C4.15044 5.6616 5.91155 3.90049 8.09371 3.90049C10.2759 3.90049 12.037 5.6616 12.037 7.84376C12.037 10.0259 10.2759 11.787 8.09371 11.787ZM12.1985 4.65992C11.689 4.65992 11.2775 4.24848 11.2775 3.73899C11.2775 3.2295 11.689 2.81806 12.1985 2.81806C12.708 2.81806 13.1194 3.2295 13.1194 3.73899C13.1196 3.85997 13.0958 3.97979 13.0496 4.09159C13.0034 4.2034 12.9356 4.30498 12.85 4.39052C12.7645 4.47607 12.6629 4.5439 12.5511 4.59013C12.4393 4.63635 12.3195 4.66007 12.1985 4.65992Z" fill="#CECECE"/>
</svg>
