<svg width="18" height="18" viewBox="0 0 18 18" fill="none" xmlns="http://www.w3.org/2000/svg">
<path d="M9.09375 0.230469C4.33722 0.230469 0.480469 4.08722 0.480469 8.84375C0.480469 13.6003 4.33722 17.457 9.09375 17.457C13.8503 17.457 17.707 13.6003 17.707 8.84375C17.707 4.08722 13.8503 0.230469 9.09375 0.230469ZM6.20023 10.155C6.20023 10.6895 5.76764 11.124 5.23315 11.124C4.97745 11.124 4.73135 11.0221 4.54871 10.8394C4.36798 10.6568 4.26608 10.4107 4.26608 10.155C4.26608 9.62048 4.69867 9.18597 5.23315 9.18597H6.20023V10.155ZM8.77652 12.739C8.77652 13.2734 8.34393 13.7079 7.80945 13.7079C7.27496 13.7079 6.84238 13.2734 6.84238 12.739V10.155C6.84238 9.62048 7.27496 9.18597 7.80945 9.18597C8.06516 9.18597 8.31125 9.28787 8.4939 9.47052C8.67654 9.65317 8.77652 9.89926 8.77652 10.155V12.739ZM7.81137 8.53998H5.23508C4.70059 8.53998 4.26801 8.10547 4.26801 7.57098C4.26801 7.0365 4.70059 6.60199 5.23508 6.60199H7.81137C8.34586 6.60199 8.77844 7.0365 8.77844 7.57098C8.77652 8.10739 8.34393 8.53998 7.81137 8.53998ZM7.81137 5.95599C7.55566 5.95599 7.30957 5.8541 7.12692 5.67145C6.94427 5.4888 6.8443 5.24463 6.8443 4.987C6.8443 4.45251 7.27689 4.01801 7.81137 4.01801C8.34586 4.01801 8.77844 4.45251 8.77844 4.987V5.95599H7.81137ZM9.42059 4.987C9.42059 4.45251 9.85318 4.01801 10.3877 4.01801C10.9221 4.01801 11.3547 4.45251 11.3547 4.987V7.57098C11.3547 8.10547 10.9221 8.53998 10.3877 8.53998C9.85318 8.53998 9.42059 8.10547 9.42059 7.57098V4.987ZM10.3877 13.7079C9.85318 13.7079 9.42059 13.2734 9.42059 12.739V11.77H10.3877C10.9221 11.77 11.3547 12.2045 11.3547 12.739C11.3547 13.2734 10.9221 13.7079 10.3877 13.7079ZM12.964 11.124H10.3877C10.132 11.124 9.88586 11.0221 9.70322 10.8394C9.52057 10.6568 9.42059 10.4126 9.42059 10.155C9.42059 9.62048 9.85318 9.18597 10.3877 9.18597H12.964C13.4984 9.18597 13.931 9.62048 13.931 10.155C13.931 10.6895 13.4984 11.124 12.964 11.124ZM12.964 8.53998H11.9969V7.57098C11.9969 7.0365 12.4295 6.60199 12.964 6.60199C13.4984 6.60199 13.931 7.0365 13.931 7.57098C13.931 8.10547 13.4984 8.53998 12.964 8.53998Z" fill="#CECECE"/>
</svg>
