<svg width="17" height="15" viewBox="0 0 17 15" fill="none" xmlns="http://www.w3.org/2000/svg">
<path d="M16.7616 3.52071C16.7695 3.50791 16.7722 3.49262 16.7693 3.47789C16.7664 3.46315 16.7581 3.45003 16.746 3.44114C16.7427 3.43786 16.7395 3.43458 16.7362 3.43294L16.7313 3.4313L11.7823 0.955592C11.7071 0.920886 11.6256 0.902171 11.5428 0.900631C11.4472 0.900022 11.3531 0.923535 11.2691 0.968992C11.185 1.01445 11.1138 1.08038 11.0621 1.16067L8.21231 5.79215L11.788 11.6024L16.7616 3.52071ZM15.8888 14.6302C16.39 14.8812 16.7969 14.7057 16.7969 14.2381V4.95872L12.0317 12.7016L15.8888 14.6302ZM6.64305 4.73723V10.0086L11.3279 12.3506L6.64305 4.73723ZM0.845078 12.5778L5.1025 14.7065C5.19718 14.7566 5.30219 14.7842 5.4093 14.7869C5.67426 14.7869 5.85965 14.5818 5.85965 14.2381V3.49692C5.85967 3.48701 5.85701 3.47729 5.85196 3.46877C5.8469 3.46025 5.83964 3.45325 5.83094 3.44852L0.996836 1.0327C0.921016 0.992116 0.836718 0.969917 0.750742 0.967897C0.539102 0.967897 0.390625 1.13114 0.390625 1.40594V11.8428C0.390625 12.1225 0.595703 12.4531 0.845078 12.5778Z" fill="#CECECE"/>
</svg>
