<svg width="17" height="17" viewBox="0 0 17 17" fill="none" xmlns="http://www.w3.org/2000/svg">
<path d="M8.09375 0.845703C3.68329 0.845703 0.0957031 4.43329 0.0957031 8.84375C0.0957031 13.2542 3.68329 16.8418 8.09375 16.8418C12.5042 16.8418 16.0918 13.2542 16.0918 8.84375C16.0918 4.43329 12.5042 0.845703 8.09375 0.845703ZM13.3828 4.53326C14.3345 5.69644 14.9113 7.17685 14.9248 8.78992C14.6998 8.74185 12.4408 8.28427 10.1682 8.57074C10.1202 8.45346 10.0721 8.33618 10.0221 8.2189C9.87985 7.88629 9.72797 7.55368 9.56839 7.22876C12.0928 6.19632 13.2386 4.72937 13.3828 4.53326ZM8.09375 2.02234C9.82986 2.02234 11.416 2.6741 12.6215 3.74307C12.4984 3.91803 11.4698 5.30038 9.0416 6.2117C7.92264 4.15451 6.68256 2.46646 6.49222 2.21268C7.01709 2.08579 7.5535 2.02234 8.09375 2.02234ZM5.18869 2.67218C5.36942 2.91827 6.59027 4.61209 7.72076 6.62314C4.52539 7.47101 1.71069 7.45947 1.405 7.45563C1.84912 5.33499 3.27762 3.57388 5.18869 2.67218ZM1.26273 8.85336C1.26273 8.78415 1.26465 8.71301 1.26657 8.6438C1.56458 8.64957 4.8753 8.69186 8.28793 7.67096C8.48404 8.05356 8.67053 8.44192 8.84164 8.83029C8.75128 8.85529 8.66092 8.8822 8.57248 8.91104C5.04834 10.0531 3.1738 13.1581 3.01807 13.4215C1.92795 12.2102 1.26273 10.6087 1.26273 8.85336ZM8.09375 15.6844C6.51337 15.6844 5.05795 15.1461 3.90054 14.2424C4.02359 13.9906 5.40594 11.3201 9.25885 9.97617L9.30307 9.96078C10.2625 12.4525 10.6585 14.5424 10.7604 15.1422C9.91765 15.5024 9.01026 15.6869 8.09375 15.6844ZM11.9101 14.5174C11.8409 14.1021 11.4775 12.1026 10.5835 9.6474C12.7253 9.30518 14.6056 9.86658 14.8383 9.93964C14.5345 11.8392 13.4444 13.4811 11.9101 14.5174Z" fill="#CECECE"/>
</svg>
