<svg width="17" height="14" viewBox="0 0 17 14" fill="none" xmlns="http://www.w3.org/2000/svg">
<path d="M16.5918 1.8892C16.0034 2.14298 15.3632 2.32563 14.7038 2.39677C15.3884 1.99001 15.9011 1.34741 16.1457 0.589516C15.5032 0.971709 14.7994 1.23971 14.0655 1.38163C13.7587 1.05368 13.3877 0.792428 12.9755 0.61414C12.5634 0.435852 12.1189 0.344353 11.6699 0.345345C9.85303 0.345345 8.39185 1.81806 8.39185 3.62531C8.39185 3.8791 8.42261 4.13288 8.4726 4.37705C5.75211 4.23478 3.32578 2.9351 1.71271 0.945198C1.41879 1.44722 1.26477 2.01883 1.26666 2.60056C1.26666 3.73875 1.84537 4.74235 2.72784 5.33259C2.20779 5.31211 1.69991 5.16916 1.24551 4.91538V4.95576C1.24551 6.5496 2.37216 7.87043 3.87372 8.1742C3.59178 8.24744 3.30176 8.2849 3.01047 8.28571C2.79706 8.28571 2.59518 8.26457 2.39139 8.23573C2.80667 9.53541 4.01599 10.4794 5.45602 10.5102C4.32938 11.3926 2.91818 11.9118 1.38586 11.9118C1.11093 11.9118 0.857147 11.9021 0.59375 11.8714C2.04724 12.8038 3.77182 13.3422 5.62906 13.3422C11.6584 13.3422 14.9576 8.34724 14.9576 4.01176C14.9576 3.86948 14.9576 3.72721 14.9479 3.58494C15.5862 3.11774 16.1457 2.53904 16.5918 1.8892Z" fill="#CECECE"/>
</svg>
