<svg width="54" height="53" viewBox="0 0 54 53" fill="none" xmlns="http://www.w3.org/2000/svg">
<path d="M26.9724 0.000397985C27.6846 -0.0153246 28.2281 0.43539 28.4661 1.24773C29.1695 3.65678 29.8373 6.07457 30.5797 8.4714C32.9064 15.9938 37.9524 20.8224 45.6076 23.0288C47.9237 23.6961 50.2486 24.3338 52.5682 24.9906C53.57 25.2736 54.0105 25.7366 53.9998 26.4616C53.9892 27.1673 53.5522 27.6198 52.5967 27.8906C49.8952 28.6575 47.1564 29.3196 44.4957 30.2053C37.2651 32.6109 32.6187 37.4988 30.482 44.6981C29.7929 47.0198 29.1322 49.3502 28.4572 51.6754C28.205 52.5454 27.7272 52.9839 27.0257 52.9996C26.3046 53.0153 25.8019 52.5646 25.539 51.6632C24.7931 49.1074 24.1146 46.5324 23.2887 44.0028C20.9531 36.8542 16.0953 32.1776 8.79721 29.9817C6.3195 29.2357 3.81693 28.5736 1.32502 27.8749C0.454711 27.6303 0.00357308 27.1464 2.08165e-05 26.4511C-0.00353145 25.7558 0.447606 25.2632 1.31258 25.0186C3.88975 24.2953 6.48824 23.6402 9.03877 22.8384C16.5181 20.4905 21.3296 15.5553 23.5267 8.1517C24.2087 5.85096 24.8641 3.54148 25.5355 1.23899C25.7646 0.449366 26.2726 0.0178673 26.9706 0.00214465L26.9724 0.000397985Z" fill="#FFC846"/>
</svg>
