<svg width="38" height="38" viewBox="0 0 38 38" fill="none" xmlns="http://www.w3.org/2000/svg">
<path d="M18.9806 0.000285348C19.4818 -0.0109875 19.8642 0.312167 20.0317 0.894596C20.5267 2.62184 20.9966 4.35535 21.5191 6.07383C23.1564 11.4672 26.7073 14.9293 32.0942 16.5112C33.7241 16.9897 35.3601 17.4469 36.9925 17.9178C37.6974 18.1207 38.0074 18.4526 37.9999 18.9724C37.9924 19.4785 37.6849 19.8029 37.0125 19.997C35.1114 20.5469 33.1841 21.0216 31.3118 21.6566C26.2236 23.3814 22.9539 26.886 21.4503 32.0477C20.9654 33.7123 20.5004 35.3832 20.0255 37.0503C19.848 37.6741 19.5118 37.9884 19.0181 37.9997C18.5106 38.011 18.1569 37.6878 17.9719 37.0415C17.447 35.2091 16.9695 33.3628 16.3883 31.5492C14.7448 26.4238 11.3264 23.0707 6.19063 21.4963C4.44706 20.9615 2.68599 20.4868 0.932419 19.9857C0.319982 19.8104 0.00251439 19.4634 1.46487e-05 18.9649C-0.00248509 18.4664 0.314982 18.1132 0.92367 17.9378C2.73723 17.4193 4.5658 16.9496 6.36061 16.3747C11.6238 14.6913 15.0097 11.1529 16.5558 5.84462C17.0358 4.19503 17.497 2.53918 17.9694 0.888333C18.1307 0.322187 18.4881 0.0128105 18.9793 0.00153767L18.9806 0.000285348Z" fill="#95CCFF"/>
</svg>
