<svg width="36" height="36" viewBox="0 0 36 36" fill="none" xmlns="http://www.w3.org/2000/svg">
<path d="M30.2617 5.625H5.51172C4.91498 5.625 4.34269 5.86205 3.92073 6.28401C3.49877 6.70597 3.26172 7.27826 3.26172 7.875V28.125C3.26172 28.7217 3.49877 29.294 3.92073 29.716C4.34269 30.1379 4.91498 30.375 5.51172 30.375H30.2617C30.8585 30.375 31.4308 30.1379 31.8527 29.716C32.2747 29.294 32.5117 28.7217 32.5117 28.125V7.875C32.5117 7.27826 32.2747 6.70597 31.8527 6.28401C31.4308 5.86205 30.8585 5.625 30.2617 5.625ZM30.2617 16.875H23.5117V7.875H30.2617V16.875ZM5.51172 7.875H21.2617V28.125H5.51172V7.875ZM30.2617 28.125H23.5117V19.125H30.2617V28.125ZM25.1992 12.375C25.1992 12.0412 25.2982 11.715 25.4836 11.4375C25.669 11.16 25.9326 10.9437 26.2409 10.816C26.5493 10.6882 26.8886 10.6548 27.2159 10.7199C27.5433 10.785 27.844 10.9458 28.08 11.1818C28.316 11.4178 28.4767 11.7184 28.5418 12.0458C28.6069 12.3731 28.5735 12.7124 28.4458 13.0208C28.318 13.3291 28.1018 13.5927 27.8242 13.7781C27.5467 13.9635 27.2205 14.0625 26.8867 14.0625C26.4392 14.0625 26.0099 13.8847 25.6935 13.5682C25.377 13.2518 25.1992 12.8226 25.1992 12.375ZM28.5742 23.625C28.5742 23.9588 28.4752 24.285 28.2898 24.5625C28.1044 24.84 27.8408 25.0563 27.5325 25.184C27.2241 25.3118 26.8848 25.3452 26.5575 25.2801C26.2302 25.215 25.9295 25.0542 25.6935 24.8182C25.4575 24.5822 25.2968 24.2816 25.2316 23.9542C25.1665 23.6269 25.1999 23.2876 25.3277 22.9792C25.4554 22.6709 25.6717 22.4073 25.9492 22.2219C26.2267 22.0365 26.553 21.9375 26.8867 21.9375C27.3343 21.9375 27.7635 22.1153 28.08 22.4318C28.3964 22.7482 28.5742 23.1774 28.5742 23.625ZM18.9766 23.3438C18.6125 21.9845 17.7493 20.8125 16.5592 20.0616C17.1912 19.4333 17.6225 18.6315 17.7983 17.7579C17.9741 16.8842 17.8865 15.9781 17.5467 15.1542C17.2069 14.3304 16.6302 13.626 15.8896 13.1304C15.149 12.6347 14.2779 12.3701 13.3867 12.3701C12.4956 12.3701 11.6245 12.6347 10.8839 13.1304C10.1433 13.626 9.56651 14.3304 9.2267 15.1542C8.8869 15.9781 8.79935 16.8842 8.97515 17.7579C9.15096 18.6315 9.5822 19.4333 10.2142 20.0616C9.02489 20.8133 8.16194 21.985 7.79688 23.3438C7.72228 23.6328 7.76557 23.9396 7.91721 24.1968C8.06885 24.4539 8.31642 24.6403 8.60547 24.7148C8.89451 24.7894 9.20135 24.7461 9.45848 24.5945C9.71561 24.4429 9.90197 24.1953 9.97656 23.9062C10.3478 22.4648 11.8131 21.375 13.3867 21.375C14.9603 21.375 16.427 22.462 16.7969 23.9062C16.8715 24.1953 17.0578 24.4429 17.315 24.5945C17.5721 24.7461 17.8789 24.7894 18.168 24.7148C18.457 24.6403 18.7046 24.4539 18.8562 24.1968C19.0079 23.9396 19.0512 23.6328 18.9766 23.3438ZM11.1367 16.875C11.1367 16.43 11.2687 15.995 11.5159 15.625C11.7631 15.255 12.1145 14.9666 12.5257 14.7963C12.9368 14.626 13.3892 14.5814 13.8257 14.6682C14.2621 14.755 14.663 14.9693 14.9777 15.284C15.2924 15.5987 15.5067 15.9996 15.5935 16.436C15.6803 16.8725 15.6357 17.3249 15.4654 17.736C15.2952 18.1472 15.0068 18.4986 14.6368 18.7458C14.2667 18.993 13.8317 19.125 13.3867 19.125C12.79 19.125 12.2177 18.8879 11.7957 18.466C11.3738 18.044 11.1367 17.4717 11.1367 16.875Z" fill="white"/>
</svg>
