<svg width="129" height="129" viewBox="0 0 129 129" fill="none" xmlns="http://www.w3.org/2000/svg">
<path d="M64.0035 4.16665C64.0736 3.57887 64.9264 3.57887 64.9965 4.16665L69.1248 38.8126C69.1821 39.2932 69.8205 39.4202 70.0574 38.9981L87.1299 8.56926C87.4195 8.05302 88.2075 8.37941 88.0473 8.94925L78.6029 42.5378C78.4719 43.0037 79.0132 43.3654 79.3935 43.0661L106.811 21.4868C107.276 21.1207 107.879 21.7238 107.513 22.189L85.9339 49.6065C85.6346 49.9868 85.9963 50.5281 86.4622 50.3971L120.051 40.9527C120.621 40.7925 120.947 41.5805 120.431 41.8701L90.0019 58.9426C89.5798 59.1795 89.7068 59.8179 90.1874 59.8752L124.833 64.0035C125.421 64.0736 125.421 64.9264 124.833 64.9965L90.1874 69.1248C89.7068 69.1821 89.5798 69.8205 90.0019 70.0574L120.431 87.1299C120.947 87.4195 120.621 88.2075 120.051 88.0473L86.4622 78.6029C85.9963 78.4719 85.6346 79.0132 85.9339 79.3935L107.513 106.811C107.879 107.276 107.276 107.879 106.811 107.513L79.3935 85.9339C79.0132 85.6346 78.4719 85.9963 78.6029 86.4622L88.0473 120.051C88.2075 120.621 87.4195 120.947 87.1299 120.431L70.0574 90.0019C69.8205 89.5798 69.1821 89.7068 69.1248 90.1874L64.9965 124.833C64.9264 125.421 64.0736 125.421 64.0035 124.833L59.8752 90.1874C59.8179 89.7068 59.1794 89.5798 58.9426 90.0019L41.8701 120.431C41.5805 120.947 40.7925 120.621 40.9527 120.051L50.3971 86.4622C50.5281 85.9963 49.9868 85.6346 49.6065 85.9339L22.189 107.513C21.7238 107.879 21.1207 107.276 21.4868 106.811L43.0661 79.3935C43.3654 79.0132 43.0037 78.4719 42.5378 78.6029L8.94925 88.0473C8.37941 88.2075 8.05302 87.4195 8.56926 87.1299L38.9981 70.0574C39.4202 69.8205 39.2932 69.1821 38.8126 69.1248L4.16665 64.9965C3.57887 64.9264 3.57887 64.0736 4.16665 64.0035L38.8126 59.8752C39.2932 59.8179 39.4202 59.1794 38.9981 58.9426L8.56926 41.8701C8.05302 41.5805 8.37941 40.7925 8.94925 40.9527L42.5378 50.3971C43.0037 50.5281 43.3654 49.9868 43.0661 49.6065L21.4868 22.189C21.1207 21.7238 21.7238 21.1207 22.189 21.4868L49.6065 43.0661C49.9868 43.3654 50.5281 43.0037 50.3971 42.5378L40.9527 8.94925C40.7925 8.37941 41.5805 8.05302 41.8701 8.56926L58.9426 38.9981C59.1795 39.4202 59.8179 39.2932 59.8752 38.8126L64.0035 4.16665Z" fill="#E3DB11"/>
</svg>
