<svg width="90" height="90" viewBox="0 0 90 90" fill="none" xmlns="http://www.w3.org/2000/svg">
<path d="M60.1029 30.4353C60.207 30.1635 60.3912 29.9298 60.631 29.7649C60.8708 29.6 61.1549 29.5117 61.446 29.5117C61.737 29.5117 62.0211 29.6 62.2609 29.7649C62.5007 29.9298 62.6849 30.1635 62.789 30.4353L68.1671 44.4644C68.2385 44.6507 68.3479 44.8201 68.4883 44.9619C68.6287 45.1037 68.797 45.2147 68.9827 45.2879L82.8658 50.7652C83.1343 50.8711 83.3648 51.0553 83.5272 51.294C83.6896 51.5326 83.7764 51.8146 83.7764 52.1032C83.7764 52.3919 83.6896 52.6738 83.5272 52.9125C83.3648 53.1511 83.1343 53.3353 82.8658 53.4413L68.9819 58.9186C68.7963 58.9918 68.628 59.1028 68.4876 59.2445C68.3471 59.3863 68.2378 59.5557 68.1664 59.742L62.7883 73.7705C62.6842 74.0422 62.5 74.2759 62.2602 74.4408C62.0204 74.6057 61.7363 74.694 61.4452 74.694C61.1542 74.694 60.8701 74.6057 60.6303 74.4408C60.3905 74.2759 60.2063 74.0422 60.1022 73.7705L54.7248 59.742C54.6535 59.5558 54.5442 59.3864 54.404 59.2446C54.2637 59.1029 54.0955 58.9918 53.91 58.9186L40.0254 53.4405C39.7569 53.3346 39.5264 53.1504 39.3641 52.9117C39.2017 52.6731 39.1148 52.3911 39.1148 52.1025C39.1148 51.8139 39.2017 51.5319 39.3641 51.2932C39.5264 51.0546 39.7569 50.8704 40.0254 50.7645L53.91 45.2864C54.0955 45.2132 54.2637 45.1021 54.404 44.9604C54.5442 44.8186 54.6535 44.6492 54.7248 44.463L60.1029 30.4353Z" fill="#A0A0D8"/>
<path d="M40.3324 13.9061C40.4389 13.6387 40.6232 13.4094 40.8614 13.2479C41.0997 13.0863 41.3809 13 41.6687 13C41.9565 13 42.2377 13.0863 42.4759 13.2479C42.7141 13.4094 42.8984 13.6387 43.0049 13.9061L51.2755 34.6617C51.3479 34.8432 51.4564 35.008 51.5945 35.1461C51.7327 35.2842 51.8974 35.3927 52.0789 35.4651L72.8345 43.7357C73.1019 43.8422 73.3312 44.0265 73.4927 44.2647C73.6543 44.5029 73.7406 44.7841 73.7406 45.0719C73.7406 45.3597 73.6543 45.6409 73.4927 45.8792C73.3312 46.1174 73.1019 46.3017 72.8345 46.4082L52.0789 54.6788C51.8974 54.7511 51.7327 54.8597 51.5945 54.9978C51.4564 55.1359 51.3479 55.3007 51.2755 55.4821L43.0049 76.2378C42.8984 76.5052 42.7141 76.7345 42.4759 76.896C42.2377 77.0575 41.9565 77.1439 41.6687 77.1439C41.3809 77.1439 41.0997 77.0575 40.8614 76.896C40.6232 76.7345 40.4389 76.5052 40.3324 76.2378L32.0618 55.4821C31.9895 55.3007 31.8809 55.1359 31.7428 54.9978C31.6047 54.8597 31.4399 54.7511 31.2585 54.6788L10.5028 46.4082C10.2354 46.3017 10.0061 46.1174 9.84461 45.8792C9.68309 45.6409 9.59674 45.3597 9.59674 45.0719C9.59674 44.7841 9.68309 44.5029 9.84461 44.2647C10.0061 44.0265 10.2354 43.8422 10.5028 43.7357L31.2585 35.4651C31.4399 35.3927 31.6047 35.2842 31.7428 35.1461C31.8809 35.008 31.9895 34.8432 32.0618 34.6617L40.3324 13.9061Z" fill="#5350C3"/>
</svg>
