<svg width="90" height="90" viewBox="0 0 90 90" fill="none" xmlns="http://www.w3.org/2000/svg">
<path fill-rule="evenodd" clip-rule="evenodd" d="M66.3333 34.3333C66.3333 34.6867 66.3247 35.0381 66.3078 35.3873C64.2177 34.7033 61.9854 34.3333 59.6667 34.3333C53.9856 34.3333 48.8231 36.554 45 40.1747C41.1769 36.554 36.0144 34.3333 30.3333 34.3333C28.0146 34.3333 25.7823 34.7033 23.6922 35.3873C23.6753 35.0381 23.6667 34.6867 23.6667 34.3333C23.6667 22.5513 33.2179 13 45 13C56.7821 13 66.3333 22.5513 66.3333 34.3333ZM38.3589 54.6127C30.1471 51.9252 24.1302 44.3887 23.6922 35.3873C15.1618 38.1791 9 46.2033 9 55.6667C9 67.4487 18.5513 77 30.3333 77C36.0144 77 41.1769 74.7793 45 71.1587C48.8231 74.7793 53.9856 77 59.6667 77C71.4487 77 81 67.4487 81 55.6667C81 46.2033 74.8382 38.1791 66.3078 35.3873C65.8698 44.3887 59.853 51.9252 51.6411 54.6127C51.3648 48.9336 48.8678 43.8377 45 40.1747C41.1322 43.8377 38.6352 48.9336 38.3589 54.6127ZM38.3589 54.6127C40.449 55.2968 42.6813 55.6667 45 55.6667C47.3187 55.6667 49.551 55.2968 51.6411 54.6127C51.6581 54.9619 51.6667 55.3133 51.6667 55.6667C51.6667 61.7676 49.1056 67.2704 45 71.1587C40.8944 67.2704 38.3333 61.7676 38.3333 55.6667C38.3333 55.3133 38.3419 54.9619 38.3589 54.6127Z" fill="#5350C3"/>
<path d="M52 54.9115C49.7969 55.618 47.444 56 45 56C42.556 56 40.2031 55.618 38 54.9115C38.2912 49.0462 40.9231 43.7831 45 40C49.0769 43.7831 51.7088 49.0462 52 54.9115Z" fill="#E8ECEA"/>
<path d="M51.8697 53.3807C51.9785 54.2802 51.4017 55.1131 50.5222 55.3307C48.7554 55.7678 46.9054 56 45 56C43.0946 56 41.2446 55.7678 39.4778 55.3307C38.5983 55.1131 38.0215 54.2802 38.1303 53.3807C38.6872 48.7736 40.6949 44.6022 43.6934 41.3173C44.399 40.5443 45.601 40.5443 46.3066 41.3173C49.3051 44.6022 51.3128 48.7736 51.8697 53.3807Z" fill="#A0A0D8"/>
</svg>
