<svg width="90" height="90" viewBox="0 0 90 90" fill="none" xmlns="http://www.w3.org/2000/svg">
<path d="M35.9999 63.5C33.9999 48.5983 36.8357 45.1394 45.0083 41.1074C53.1809 37.0754 63.0619 40.4292 67.0782 48.5983C71.0944 56.7675 67.725 66.6585 59.5524 70.6906L45.5 78L35.9999 63.5Z" fill="#807FCF"/>
<path d="M71.9847 34.0764C68.9066 39.6243 61.92 41.6331 56.3798 38.5632C50.8396 35.4933 48.8438 28.5072 51.9219 22.9593C55 17.4115 61.9866 15.4027 67.5268 18.4726C73.0669 21.5425 75.0628 28.5286 71.9847 34.0764Z" fill="#807FCF"/>
<path d="M30.2221 70.4851C21.6294 66.3347 18.0223 55.9921 22.1653 47.3842C26.3083 38.7763 37 34.5 45.2252 39.3131C55.5 46.5 49.5 57 43.282 62.414C37.064 67.8281 45.7804 78 45.7804 78L30.2221 70.4851Z" fill="#5350C3"/>
<path d="M39.8959 24.1543C40.9381 30.723 36.4674 36.8943 29.9104 37.9384C23.3534 38.9824 17.193 34.5038 16.1508 27.9351C15.1086 21.3664 19.5793 15.1951 26.1363 14.1511C32.6933 13.107 38.8537 17.5856 39.8959 24.1543Z" fill="#5350C3"/>
</svg>
