<svg width="90" height="90" viewBox="0 0 90 90" fill="none" xmlns="http://www.w3.org/2000/svg">
<rect x="46.5" y="46.5" width="33" height="33" rx="3" fill="#A0A0D8"/>
<rect x="46.5" y="10.5" width="33" height="33" rx="3" fill="#A0A0D8"/>
<rect x="10.5" y="46.5" width="33" height="33" rx="3" fill="#A0A0D8"/>
<rect x="10.5" y="10.5" width="33" height="33" rx="3" fill="#5350C3"/>
<path d="M25.1211 28.8806C25.2038 28.7735 25.2726 28.6532 25.3701 28.5602C28.3886 25.679 31.4089 22.8004 34.4292 19.9227C35.0182 19.3616 35.2978 19.3599 35.8794 19.9129C36.6431 20.6394 37.4086 21.3651 38.1695 22.0951C38.6126 22.5208 38.6117 22.8367 38.1658 23.2605C34.0037 27.2249 29.8397 31.1875 25.6748 35.1501C25.1815 35.6191 24.8749 35.6156 24.377 35.1404C22.2039 33.0662 20.0319 30.9911 17.8598 28.9151C17.3767 28.4532 17.3794 28.139 17.8681 27.6718C18.6467 26.9276 19.4261 26.1843 20.2084 25.4436C20.6515 25.0242 20.9962 25.0215 21.4384 25.4401C22.5412 26.4851 23.6402 27.5337 24.7374 28.585C24.8266 28.67 24.8852 28.7841 24.9585 28.885C25.0124 28.8832 25.0672 28.8815 25.1211 28.8806Z" fill="#A0A0D8"/>
</svg>
