<svg width="90" height="90" viewBox="0 0 90 90" fill="none" xmlns="http://www.w3.org/2000/svg">
<path d="M44.2659 14.0652L16.8114 21.2456C15.808 21.508 15.8183 22.9362 16.8254 23.1841L44.2797 29.942C44.4344 29.9801 44.596 29.9807 44.751 29.9437L73.0502 23.1856C74.0665 22.943 74.0766 21.5007 73.0639 21.2437L44.7649 14.0634C44.6011 14.0218 44.4294 14.0224 44.2659 14.0652Z" fill="#5350C3"/>
<path d="M44.2659 32.0652L16.8114 39.2456C15.808 39.508 15.8183 40.9362 16.8254 41.1841L44.2797 47.942C44.4344 47.9801 44.596 47.9807 44.751 47.9437L73.0502 41.1856C74.0665 40.943 74.0766 39.5007 73.0639 39.2437L44.7649 32.0634C44.6011 32.0218 44.4294 32.0224 44.2659 32.0652Z" fill="#A78CE2"/>
<path d="M44.2806 47.0575L17.0813 53.7266C16.0584 53.9774 16.0683 55.4353 17.0946 55.6722L44.2937 61.9489C44.4395 61.9825 44.591 61.983 44.737 61.9503L72.7731 55.6736C73.8081 55.4419 73.8179 53.9703 72.7861 53.7249L44.7501 47.0559C44.5957 47.0192 44.4347 47.0197 44.2806 47.0575Z" fill="#A78CE2"/>
<path d="M44.2806 61.0575L17.0813 67.7266C16.0584 67.9774 16.0683 69.4353 17.0946 69.6722L44.2937 75.9489C44.4395 75.9825 44.591 75.983 44.737 75.9503L72.7731 69.6736C73.8081 69.4419 73.8179 67.9703 72.7861 67.7249L44.7501 61.0559C44.5957 61.0192 44.4347 61.0197 44.2806 61.0575Z" fill="#A78CE2"/>
</svg>
