<svg width="90" height="90" viewBox="0 0 90 90" fill="none" xmlns="http://www.w3.org/2000/svg">
<path d="M72.6469 61.0681C73.951 62.0901 74.189 63.9862 73.0565 65.1956C70.6851 67.7282 67.9373 69.8888 64.905 71.5986C61 73.8005 56.6995 75.2117 52.2491 75.7516C47.7987 76.2915 43.2855 75.9495 38.9672 74.7453C34.649 73.541 30.6102 71.4979 27.0815 68.7328C23.5529 65.9676 20.6034 62.5345 18.4015 58.6295C16.1996 54.7245 14.7884 50.424 14.2485 45.9736C13.7086 41.5232 14.0505 37.01 15.2548 32.6918C16.19 29.3386 17.6309 26.1539 19.5229 23.2457C20.4265 21.8569 22.3245 21.6345 23.6286 22.6565L72.6469 61.0681Z" fill="#A0A0D8"/>
<circle cx="49.5" cy="40" r="26.5" fill="#5350C3"/>
<rect x="46" y="25" width="5" height="17" rx="1" fill="#A0A0D8"/>
<rect x="46" y="44" width="4" height="17" rx="1" transform="rotate(-90 46 44)" fill="#A0A0D8"/>
</svg>
