<svg width="90" height="90" viewBox="0 0 90 90" fill="none" xmlns="http://www.w3.org/2000/svg">
<path fill-rule="evenodd" clip-rule="evenodd" d="M58.4981 27.5405C59.1554 28.2248 59.8073 28.9034 59.4084 29.9657H59.4095C59.3624 30.7006 59.3151 31.4157 59.2687 32.1177C59.1733 33.5608 59.0815 34.9482 59.0021 36.3366C58.8991 38.1254 60.0001 38.9301 61.6299 38.2724C62.2556 38.02 62.8806 37.7652 63.5056 37.5104C64.976 36.911 66.4466 36.3115 67.9279 35.7429C68.2866 35.6049 68.7796 35.6049 69.1383 35.7429C70.6292 36.3168 72.1093 36.9214 73.5892 37.526C73.7261 37.5819 73.8631 37.6379 74 37.6938V62.5C74 64.7091 72.2091 66.5 70 66.5H45.6754C45.7071 66.5243 45.7093 66.5494 45.6739 66.5752C43.7519 67.9727 41.8412 69.3855 39.9304 70.7983C38.8834 71.5725 37.8364 72.3467 36.7875 73.1184C36.0585 73.6544 35.3121 74.1678 34.5604 74.6724C32.8938 75.7933 31.1452 75.7182 29.4655 74.8042C27.888 73.946 27.1424 72.5047 27.1372 70.701C27.1343 69.7174 27.1352 68.7343 27.1362 67.7228V67.7227L27.1362 67.7201C27.1366 67.3184 27.137 66.9123 27.1371 66.5H19C16.7909 66.5 15 64.7091 15 62.5V24.5C15 22.2909 16.7909 20.5 19 20.5H54.4333C53.9209 21.0688 53.8269 21.9125 54.3468 22.5982C54.9887 23.4441 55.6806 24.2488 56.3727 25.0538C56.9074 25.6757 57.4422 26.2978 57.9542 26.939C58.1194 27.1462 58.309 27.3436 58.4981 27.5405Z" fill="#5350C3"/>
<path d="M61.2572 29.1429C61.671 28.0787 60.681 27.5095 60.0856 26.7884C59.1392 25.6438 58.096 24.5779 57.1793 23.4116C56.5699 22.6354 57.0073 21.5992 58.0069 21.3399C59.7416 20.8894 61.485 20.4678 63.2345 20.081C63.8299 19.9492 64.1975 19.6541 64.5161 19.1416C65.4232 17.6855 66.3896 16.2668 67.3316 14.8325C68.0536 13.7325 69.1553 13.7167 69.8607 14.8202C70.8018 16.2921 71.6958 17.7955 72.6605 19.2516C72.8656 19.5616 73.2576 19.8418 73.6173 19.9413C75.3886 20.4337 77.1766 20.8676 78.9627 21.3067C79.5878 21.4604 80.1195 21.7057 80.2426 22.4111C80.3596 23.0842 79.9667 23.4901 79.5319 23.9633C78.3185 25.2833 77.187 26.6784 76.0469 28.0638C75.9229 28.2149 75.9142 28.4995 75.9273 28.7177C76.0347 30.4856 76.1481 32.2534 76.2843 34.0195C76.3935 35.4373 75.4951 36.127 74.1699 35.6093C72.4797 34.9493 70.7966 34.2692 69.0959 33.6372C68.807 33.5298 68.4098 33.5298 68.1208 33.6372C66.4202 34.2675 64.737 34.9467 63.0468 35.6049C61.7338 36.1165 60.8468 35.4906 60.9298 34.099C61.0249 32.4935 61.1419 30.8898 61.258 29.1429H61.2572Z" fill="#A0A0D8"/>
</svg>
